<svg id="Layer_1" data-name="Layer 1" xmlns="http://www.w3.org/2000/svg" viewBox="0 0 377.18 144.53"><defs><style>.cls-1,.cls-5{fill:#e6e7e8;}.cls-1,.cls-2,.cls-3{stroke:#e6e7e8;stroke-miterlimit:10;}.cls-1,.cls-3{stroke-width:3px;}.cls-2{fill:#414042;}.cls-3{fill:none;}.cls-4,.cls-5{font-size:39px;font-family:Tahoma-Bold, Tahoma;font-weight:700;letter-spacing:0.03em;}.cls-4{fill:#27aae1;}</style></defs><path class="cls-1" d="M17.08,1.5H287.41a9.7,9.7,0,0,1,9.7,9.7V21.82a0,0,0,0,1,0,0H7.38a0,0,0,0,1,0,0V11.2A9.7,9.7,0,0,1,17.08,1.5Z"/><ellipse class="cls-2" cx="22.32" cy="11.66" rx="6.15" ry="6.75"/><ellipse class="cls-2" cx="40.63" cy="11.66" rx="6.15" ry="6.75"/><ellipse class="cls-2" cx="59.26" cy="11.66" rx="6.15" ry="6.75"/><path class="cls-3" d="M277,99" transform="translate(-9.99 -23.04)"/><path class="cls-3" d="M284.36,121.11" transform="translate(-9.99 -23.04)"/><polyline class="cls-3" points="297.11 39.59 297.11 21.82 7.38 21.82 7.38 98.07"/><text class="cls-4" transform="translate(18.49 97.9)">Joe Chipperfield</text><text class="cls-5" transform="translate(0 136.11)">Web Development</text><path class="cls-3" d="M290.5,123" transform="translate(-9.99 -23.04)"/><path class="cls-3" d="M290.5,80.15" transform="translate(-9.99 -23.04)"/><path class="cls-3" d="M305.16,65.49" transform="translate(-9.99 -23.04)"/><path class="cls-3" d="M372.58,123V80.15a14.66,14.66,0,0,0-14.66-14.66" transform="translate(-9.99 -23.04)"/><path class="cls-1" d="M297.05,42.38H346a0,0,0,0,1,0,0v5a4,4,0,0,1-4,4H301.05a4,4,0,0,1-4-4v-5A0,0,0,0,1,297.05,42.38Z"/></svg>